#!OML:ASF H:\MichaelJackson\Top Level 1\Subject 1\Session 1\male.ASF
:FULLY-SPECIFIED
:DEGREES
278
root -12.2706 17.2982 -32.0961 -144.54 79.2744 -142.533
lowerback 15.6372 -0.396837 -3.37312
upperback 0.472709 -1.20139 -1.76823
thorax -8.25239 -0.45035 0.280105
lowerneck 6.14962 2.66463 11.7166
upperneck -4.94854 4.15732 -7.0238
head -2.0715 2.09032 -4.15152
rclavicle -9.14409e-015 3.18055e-015
rhumerus -68.6425 -6.45784 -41.2719
rradius 121.597
rwrist 6.48772
rhand -5.65604 -27.8472
rfingers 7.12502
rthumb 20.163 -56.8208
lclavicle -9.14409e-015 3.18055e-015
lhumerus -60.475 -38.2781 106.221
lradius 82.3055
lwrist 22.2935
lhand 4.77613 15.5673
lfingers 7.12502
lthumb 30.1564 43.1261
rfemur -94.7639 -25.7161 48.4827
rtibia 102.413
rfoot 21.8928 22.0689
rtoes -38.485
lfemur -12.8922 19.3657 -13.6146
ltibia 40.6214
lfoot -16.6639 -14.4691
ltoes 62.1146
279
root -12.2194 17.2926 -32.0224 -151.813 77.3007 -150.035
lowerback 15.2237 -0.592455 -3.04995
upperback 0.624984 -1.39792 -2.1284
thorax -7.86714 -0.567031 -0.249375
lowerneck 5.76914 2.55692 11.2926
upperneck -4.86792 3.94465 -6.87663
head -2.01705 1.98313 -4.02486
rclavicle 4.6118e-014 -6.36111e-015
rhumerus -68.0716 -6.98066 -41.6757
rradius 122.359
rwrist 6.27643
rhand -6.48329 -27.2767
rfingers 7.12502
rthumb 19.3677 -56.3322
lclavicle 4.6118e-014 -6.36111e-015
lhumerus -59.9942 -38.278 105.143
lradius 82.8637
lwrist 22.8121
lhand 4.5044 16.3943
lfingers 7.12502
lthumb 29.8971 44.0001
rfemur -91.8845 -26.0609 47.2414
rtibia 101.66
rfoot 22.7527 22.5773
rtoes -36.7854
lfemur -13.3646 20.2528 -14.103
ltibia 40.5168
lfoot -16.7782 -13.6138
ltoes 62.335
280
root -12.1514 17.279 -31.9345 -156.49 75.6814 -155.051
lowerback 14.3255 0.224261 -3.80911
upperback 0.831224 -0.388179 -2.32092
thorax -7.15406 -0.0600256 -0.239351
lowerneck 5.34808 1.97741 11.6547
upperneck -4.55731 3.1869 -6.34799
head -1.93074 1.58363 -3.89288
rclavicle -2.70347e-014 -2.70347e-014
rhumerus -69.3287 -8.46392 -41.2308
rradius 123.646
rwrist 6.80549
rhand -7.9593 -27.3101
rfingers 7.12502
rthumb 17.948 -56.5019
lclavicle -2.70347e-014 -2.70347e-014
lhumerus -60.3529 -40.4256 105.364
lradius 83.6698
lwrist 23.6969
lhand 4.08586 17.5739
lfingers 7.12502
lthumb 29.4977 45.251
rfemur -88.1215 -24.8751 45.1729
rtibia 100.118
rfoot 21.3089 24.8677
rtoes -37.4375
lfemur -13.8915 21.8358 -14.6588
ltibia 40.6269
lfoot -17.1417 -12.8535
ltoes 62.0509
281
root -12.0886 17.2644 -31.8714 -160.131 73.1793 -159.368
lowerback 13.4932 0.263256 -4.07948
upperback 0.74186 -0.333029 -2.23075
thorax -6.78332 -0.0300902 0.00107509
lowerneck 5.35169 1.77034 11.1293
upperneck -4.08262 2.92044 -5.57453
head -2.03867 1.43193 -3.96367
rclavicle -1.72943e-014 7.95139e-015
rhumerus -68.1692 -8.42471 -40.9508
rradius 123.524
rwrist 7.09014
rhand -9.58382 -27.4534
rfingers 7.12502
rthumb 16.3844 -56.7814
lclavicle -1.72943e-014 7.95139e-015
lhumerus -59.6758 -39.9145 105.1
lradius 83.5229
lwrist 23.5138
lhand 3.84206 17.7157
lfingers 7.12502
lthumb 29.2649 45.4335
rfemur -85.1007 -24.158 43.2555
rtibia 98.0345
rfoot 21.0369 27.1421
rtoes -36.2514
lfemur -15.0898 22.5561 -15.3681
ltibia 40.8825
lfoot -17.5072 -12.1018
ltoes 61.9527
282
root -12.0185 17.2362 -31.8126 -162.819 70.2034 -162.794
lowerback 12.6591 0.222034 -4.37536
upperback 0.60417 -0.381485 -2.01097
thorax -6.45806 -0.0495606 0.411047
lowerneck 5.3826 1.4454 10.7442
upperneck -3.78977 2.46905 -5.44364
head -1.99177 1.2156 -3.82541
rclavicle 4.37326e-014 -3.97569e-014
rhumerus -67.3456 -8.18535 -40.0899
rradius 123.369
rwrist 7.06658
rhand -11.275 -26.247
rfingers 7.12502
rthumb 14.7555 -55.7018
lclavicle 4.37326e-014 -3.97569e-014
lhumerus -59.1788 -39.4512 105.166
lradius 83.4075
lwrist 23.2413
lhand 2.29844 17.0639
lfingers 7.12502
lthumb 27.79 45.0294
rfemur -82.4079 -23.7613 41.6381
rtibia 95.5195
rfoot 20.2646 29.804
rtoes -35.5594
lfemur -16.4921 22.8329 -16.0606
ltibia 41.3109
lfoot -17.8295 -11.6872
ltoes 62.0219
283
root -11.9486 17.2167 -31.7558 -164.316 67.0073 -164.932
lowerback 11.8489 0.232074 -4.60474
upperback 0.526356 -0.340437 -1.63729
thorax -6.08428 -0.0285176 0.927815
lowerneck 5.32248 1.02425 10.3222
upperneck -3.50131 1.8802 -5.25181
head -1.93947 0.928261 -3.65328
rclavicle -4.35338e-014 1.90833e-014
rhumerus -66.7574 -8.12636 -39.0523
rradius 123.287
rwrist 7.07636
rhand -13.0349 -25.54
rfingers 7.12502
rthumb 13.0596 -55.1111
lclavicle -4.35338e-014 1.90833e-014
lhumerus -58.6198 -39.3468 105.292
lradius 83.3545
lwrist 22.8819
lhand 0.903388 16.3843
lfingers 7.12502
lthumb 26.4554 44.5579
rfemur -79.4158 -23.2063 39.7128
rtibia 92.764
rfoot 21.3198 30.144
rtoes -31.9807
lfemur -17.8315 22.668 -16.4962
ltibia 41.7759
lfoot -18.146 -11.3625
ltoes 61.9266
